<svg id="svg" xmlns="http://www.w3.org/2000/svg" xmlns:xlink="http://www.w3.org/1999/xlink"
	width="400" height="400" viewBox="0, 0, 400,400">
	<g id="svgg">
		<path id="path0"
			d="M275.610 19.427 C 232.415 30.505,206.677 59.164,200.620 102.927 L 199.405 111.707 197.689 102.446 C 191.500 69.043,168.775 46.682,132.189 37.992 C 116.913 34.364,115.647 36.451,120.380 57.461 C 127.067 87.145,140.136 102.177,173.117 118.122 C 192.984 127.726,193.174 128.058,194.033 154.879 C 194.687 175.321,194.710 175.189,191.356 170.264 C 171.281 140.785,116.548 119.244,56.982 117.380 L 38.353 116.796 36.738 119.103 C 35.476 120.904,35.122 123.717,35.122 131.924 L 35.122 142.439 25.610 142.444 C 14.180 142.451,9.419 143.584,8.204 146.588 C 6.334 151.210,8.065 325.845,9.995 327.256 C 11.238 328.165,19.514 328.656,40.726 329.080 C 104.490 330.353,160.031 340.645,168.765 352.807 C 182.966 372.582,222.941 372.253,234.749 352.263 C 236.699 348.963,239.470 347.677,253.801 343.419 C 284.645 334.256,328.952 328.780,372.252 328.780 C 389.442 328.780,389.959 328.721,392.025 326.522 L 394.146 324.264 394.131 235.547 C 394.123 186.752,393.738 146.231,393.275 145.500 C 392.110 143.663,385.453 142.532,375.505 142.482 L 367.107 142.439 366.413 131.465 C 365.432 115.965,366.527 116.699,345.366 117.357 C 286.745 119.178,234.419 139.982,211.527 170.568 L 209.094 173.818 208.481 157.397 C 207.280 125.180,208.679 122.219,229.875 112.139 C 268.718 93.665,284.580 73.606,290.182 35.873 C 293.311 14.804,293.371 14.871,275.610 19.427 M80.488 132.814 C 139.463 139.591,185.397 168.142,193.651 203.152 C 195.211 209.766,195.754 279.759,194.524 315.697 L 193.927 333.171 187.327 326.643 C 164.103 303.672,103.445 283.902,56.189 283.902 C 48.188 283.902,48.780 290.128,48.780 206.076 L 48.780 130.591 60.244 131.198 C 66.549 131.532,75.659 132.259,80.488 132.814 M352.496 182.819 C 353.349 254.657,352.606 282.822,349.844 283.379 C 348.722 283.605,343.415 284.061,338.049 284.392 C 286.614 287.564,238.262 303.863,214.513 326.033 L 210.002 330.244 209.396 319.512 C 209.062 313.610,208.787 285.590,208.785 257.245 L 208.780 205.710 211.284 198.221 C 224.139 159.762,278.189 133.018,347.402 130.871 L 351.877 130.732 352.496 182.819 "
			stroke="none" fill="rgb(51 74 47)" fill-rule="evenodd"></path>
	</g>
</svg>
